<?xml version="1.0" encoding="UTF-8"?>
<svg width="1024px" height="640px" viewBox="0 0 1024 640" version="1.1" xmlns="http://www.w3.org/2000/svg" xmlns:xlink="http://www.w3.org/1999/xlink">
    <!-- Generator: Sketch 54.1 (76490) - https://sketchapp.com -->
    <title>markdown</title>
    <desc>Created with Sketch.</desc>
    <g id="Page-1" stroke="none" stroke-width="1" fill="none" fill-rule="evenodd">
        <g id="markdown" fill="#CBD5E0" fill-rule="nonzero">
            <path d="M950.154,0 L73.846,0 C33.127,0 0,33.127 0,73.846 L0,566.154 C0,606.875 33.127,640 73.846,640 L950.154,640 C990.875,640 1024,606.875 1024,566.154 L1024,73.846 C1024,33.127 990.875,0 950.154,0 Z M576,511.875 L448,512 L448,320 L352,443.077 L256,320 L256,512 L128,512 L128,128 L256,128 L352,256 L448,128 L576,127.875 L576,511.875 Z M767.091,543.875 L608,320 L704,320 L704,128 L832,128 L832,320 L928,320 L767.091,543.875 Z" id="Shape"></path>
        </g>
    </g>
</svg>