<?xml version="1.0" encoding="UTF-8"?>
<svg width="16px" height="16px" viewBox="0 0 16 16" version="1.1" xmlns="http://www.w3.org/2000/svg" xmlns:xlink="http://www.w3.org/1999/xlink">
    <!-- Generator: Sketch 54.1 (76490) - https://sketchapp.com -->
    <title>bear</title>
    <desc>Created with Sketch.</desc>
    <g id="Page-1" stroke="none" stroke-width="1" fill="none" fill-rule="evenodd">
        <g id="bear" fill="#CBD5E0">
            <path d="M8,0 C4.88530373,0.00194856089 2.05490183,1.81149207 0.74585339,4.6377491 C-0.563195046,7.46400614 -0.112873466,10.7930951 1.9,13.17 C2.18867859,11.6569179 2.6068846,10.1714501 3.15,8.73 C3.62991747,7.4814186 4.30498346,6.31692976 5.15,5.28 C5.15,5.28 5,3.69 5.7,3.69 C6.31393155,3.77121529 6.88003166,4.06487973 7.3,4.52 C7.3,4.52 9.84,4.18 10.67,5.17 C11.5546955,5.97995295 12.6161645,6.57232114 13.77,6.9 C13.77,6.9 14.54,6.68 14.22,7.9 C13.9,9.12 12.84,10.16 10.71,10.16 C9.94,10.16 9.71,10.63 9.71,11.23 C9.95387165,12.3754569 10.4118997,13.4645458 11.06,14.44 L11.54,15.17 C14.8693675,13.5223193 16.6264885,9.79957793 15.7823067,6.18199633 C14.9381248,2.56441473 11.7147711,0.00389360395 8,8.8817842e-16"></path>
        </g>
    </g>
</svg>