<?xml version="1.0" encoding="UTF-8"?>
<svg width="107px" height="119px" viewBox="0 0 107 119" version="1.1" xmlns="http://www.w3.org/2000/svg" xmlns:xlink="http://www.w3.org/1999/xlink">
    <!-- Generator: Sketch 54.1 (76490) - https://sketchapp.com -->
    <title>Group</title>
    <desc>Created with Sketch.</desc>
    <g id="Page-1" stroke="none" stroke-width="1" fill="none" fill-rule="evenodd">
        <g id="42298-1590787413-contentful-monochrome_white-263554" fill="#CBD5E0" fill-rule="nonzero">
            <g id="Group">
                <path d="M82.2322099,41.3036396 C88.5746889,45.7063843 95.7063505,45.9515664 102.110759,39.2237031 C102.868549,38.4276402 103.51753,37.6053101 104.058403,36.7576741 C107.943492,30.6691023 106.067276,24.2994189 100.91429,18.4446229 C99.8376532,17.2213544 98.6903979,16.1118815 97.5418867,15.1306907 C96.9167581,14.5966336 96.4071891,14.1971628 96.0634547,13.9454876 C95.5351592,13.4837897 94.6374381,12.7661327 93.3934006,11.8747176 C91.211492,10.311271 88.6936244,8.75236555 85.8670624,7.29875661 C77.733305,3.11582967 68.7043715,0.613707155 59.0208084,0.644255818 C46.5781869,0.68350846 34.0320364,4.94304699 21.6991778,14.2006169 C20.9602229,14.7659726 19.7645789,15.8026495 18.2525889,17.3188128 C15.7627323,19.8155419 13.279049,22.7779844 10.9624397,26.2013866 C3.96718375,36.5387249 -0.0632722801,48.8040928 0.401360411,62.8824634 C0.85164928,76.5262161 5.98862701,88.1119424 14.2444691,97.6521346 C17.2663563,101.144133 20.5022491,104.113566 23.7431529,106.57356 C25.6431785,108.015766 27.1537919,108.998058 28.0875481,109.529867 C28.5608827,109.84402 29.3593063,110.330627 30.458911,110.93397 C32.3803468,111.988245 34.5840972,113.038771 37.0416844,114.017648 C44.5678964,117.0154 52.8177717,118.720782 61.5106214,118.465626 C72.7357472,118.136142 83.7898455,114.530264 94.3274281,107.024054 C94.7069284,106.814056 95.2501092,106.484113 95.9087035,106.035764 C97.1526913,105.188897 98.3947517,104.191845 99.5608904,103.042383 C105.598912,97.0907101 107.334209,89.5440532 101.891628,81.2306605 L101.789964,81.0753713 L101.666483,80.9367976 C100.990689,80.1784065 99.8522087,79.1140603 98.3355942,78.0510953 C93.9249435,74.9597579 89.1361494,73.9417814 84.5493307,76.5529703 C83.3518951,77.2346477 82.2195925,78.1528595 81.1580144,79.3097074 C77.0912954,83.7413883 70.4093023,87.3997397 63.4432902,88.4399135 C54.831394,89.7258527 46.3267266,87.124048 38.6115266,79.8777276 C30.6916561,72.4391752 28.2528254,60.6040537 31.9165901,49.8432612 C35.6991337,38.733605 45.0463173,31.2714889 57.3957485,30.7981658 L57.5095514,30.793804 L57.6224863,30.7791133 C57.6689213,30.7730729 57.8037592,30.7595537 58.0201829,30.7447868 C58.4089962,30.7182575 58.866176,30.7028367 59.3849057,30.7046719 C60.8944783,30.7100123 62.571631,30.8573007 64.362612,31.1943674 C69.4552802,32.152819 74.3970583,34.4154476 78.8220315,38.3636438 C79.5347151,39.1607478 80.6915924,40.2341926 82.2322099,41.3036396 Z M27.1834099,48.2317388 C22.9113568,60.7791264 25.7763075,74.6821166 35.1884734,83.5222724 C44.0270105,91.8236609 54.0675848,94.8953405 64.1817098,93.3850865 C72.3025453,92.1724731 80.0159572,87.9494261 84.8419856,82.6902926 C85.5617224,81.905964 86.2896274,81.3156882 87.0229876,80.8982 C89.5946164,79.4342205 92.4692525,80.0452955 95.4658644,82.1455612 C96.1446566,82.6213131 96.7663609,83.134058 97.3123057,83.6444529 C97.5349495,83.852599 97.7058699,84.0226678 97.819554,84.1409665 C101.66852,90.1461867 100.497348,95.0986291 96.0509102,99.481479 C95.1144674,100.40453 94.1037621,101.215864 93.0949842,101.902607 C92.744731,102.141048 92.4221433,102.345522 92.1368281,102.514898 C91.9763153,102.610185 91.8715796,102.668711 91.8321974,102.689517 L91.6826685,102.768513 L91.5451407,102.866927 C81.7900684,109.847621 71.6560633,113.16568 61.3639227,113.467779 C53.4091948,113.701269 45.8219102,112.132855 38.8918612,109.37256 C36.6317248,108.472329 34.6119946,107.509525 32.8640987,106.55047 C32.2588227,106.21836 31.7328457,105.911964 31.290059,105.639634 C31.0348838,105.482692 30.8704551,105.376422 30.8006382,105.3292 L30.6228101,105.219464 C30.4597965,105.128049 30.1155912,104.921375 29.6162257,104.598908 C28.7612897,104.046831 27.8026061,103.377629 26.7661596,102.590919 C23.7890477,100.331154 20.806925,97.5945949 18.0253309,94.380272 C10.474998,85.6553442 5.80830072,75.1302689 5.39863959,62.7175366 C4.9711362,49.764184 8.6682444,38.5132507 15.1034197,29.0035794 C17.2349036,25.8537489 19.5170346,23.1317104 21.7929921,20.8494707 C22.5833997,20.0568815 23.3136779,19.3779545 23.9640016,18.8140948 C24.3416924,18.4866199 24.6000932,18.2766025 24.7193171,18.1853653 C36.17744,9.58454404 47.6777911,5.68006443 59.0365818,5.64423094 C67.8530621,5.61641765 76.1148531,7.90594757 83.5803864,11.7452286 C86.1797522,13.0819979 88.4906868,14.5127834 90.4811191,15.9390277 C91.1715914,16.4337857 91.770574,16.8906323 92.2741307,17.2971406 C92.5656516,17.5324778 92.754196,17.6928045 92.8358762,17.7656613 L92.9373909,17.8562099 L93.048131,17.9352092 C93.0932927,17.9674264 93.2002608,18.0467501 93.3600325,18.170378 C93.6391498,18.386353 93.9535287,18.6412984 94.2941305,18.9322797 C95.2726323,19.7682289 96.2523899,20.7157203 97.1609656,21.7480392 C101.013376,26.1251275 102.24459,30.3050526 99.8434045,34.0681037 C99.4790326,34.6391343 99.0294505,35.2088042 98.4892412,35.7762969 C94.0140586,40.4774988 89.5912485,40.3254453 85.0834223,37.1962575 C84.3574657,36.6923218 83.700752,36.150142 83.1300908,35.6109494 C82.7990066,35.2981225 82.5803996,35.067806 82.4886711,34.9620374 L82.387354,34.8452126 L82.2724118,34.7417646 C77.099288,30.0859532 71.2791873,27.4083027 65.287388,26.2806326 C63.184619,25.8848868 61.2055217,25.7110814 59.4025943,25.7047031 C58.3806428,25.7010877 57.599441,25.7486206 57.0994183,25.8059996 C42.6634068,26.3999086 31.6022867,35.253117 27.1834099,48.2317388 Z" id="Path"></path>
                <path d="M27.7,43.1 C35.8185858,43.1 42.4,36.5185858 42.4,28.4 C42.4,20.2814142 35.8185858,13.7 27.7,13.7 C19.5814142,13.7 13,20.2814142 13,28.4 C13,36.5185858 19.5814142,43.1 27.7,43.1 Z M27.7,38.1 C22.3428379,38.1 18,33.7571621 18,28.4 C18,23.0428379 22.3428379,18.7 27.7,18.7 C33.0571621,18.7 37.4,23.0428379 37.4,28.4 C37.4,33.7571621 33.0571621,38.1 27.7,38.1 Z" id="Oval"></path>
                <path d="M28.3,105.3 C36.4185858,105.3 43,98.7185858 43,90.6 C43,82.4814142 36.4185858,75.9 28.3,75.9 C20.1814142,75.9 13.6,82.4814142 13.6,90.6 C13.6,98.7185858 20.1814142,105.3 28.3,105.3 Z M28.3,100.3 C22.9428379,100.3 18.6,95.9571621 18.6,90.6 C18.6,85.2428379 22.9428379,80.9 28.3,80.9 C33.6571621,80.9 38,85.2428379 38,90.6 C38,95.9571621 33.6571621,100.3 28.3,100.3 Z" id="Oval"></path>
            </g>
        </g>
    </g>
</svg>