<?xml version="1.0" encoding="UTF-8"?>
<svg width="156px" height="192px" viewBox="0 0 156 192" version="1.1" xmlns="http://www.w3.org/2000/svg" xmlns:xlink="http://www.w3.org/1999/xlink">
    <!-- Generator: Sketch 54.1 (76490) - https://sketchapp.com -->
    <title>Group</title>
    <desc>Created with Sketch.</desc>
    <g id="Page-1" stroke="none" stroke-width="1" fill="none" fill-rule="evenodd">
        <g id="safari-pinned-tab" transform="translate(0.000000, -1.000000)" fill="#CBD5E0" fill-rule="nonzero">
            <g id="Group" transform="translate(78.500000, 96.200000) scale(-1, 1) rotate(-180.000000) translate(-78.500000, -96.200000) translate(0.500000, 0.200000)">
                <path d="M1,186 C1.8,183.1 3.3,176.7 4.4,171.7 C9,150.9 13.4,130.5 13.9,127.9 C15.1,121.1 12.7,122.6 58.3,100.6 C66.1,96.9 72.5,93.4 72.5,93 C72.5,92.6 70.8,92.8 68.8,93.6 C66.7,94.4 57.8,96.9 49,99.2 C40.2,101.5 30.4,104.2 27.3,105.1 C24.1,106.1 21.5,106.7 21.5,106.5 C21.5,105.7 45.7,65 47.6,62.7 C48.1,62 52.7,62.7 61.6,64.9 C68.9,66.7 75.1,67.9 75.4,67.5 C75.8,67.2 75.6,66.7 75,66.5 C74.5,66.3 71.5,64.6 68.5,62.7 C65.5,60.9 59.9,57.5 56,55.2 L49,50.9 L35.5,29.4 C28.1,17.5 20.9,6 19.6,3.9 L17.2,0 L21.6,2.5 C25.6,4.7 79.9,34.7 92,41.3 C94.8,42.8 105.1,48.5 115,53.9 L133,63.8 L133.1,87.3 L133.2,110.7 L144.3,127.7 C150.4,137 155.3,144.8 155,145 C154.7,145.3 143.3,143.2 131.5,140.6 C130.1,140.3 127.7,139.9 126,139.6 C124.4,139.4 122.3,139 121.5,138.8 C120.7,138.7 118.3,138.2 116.2,137.7 C112.9,137.1 111.4,135.6 104.4,126.6 C99.4,120.1 95.9,116.4 95.2,116.9 C93.8,117.7 86.2,123.4 85.5,124.2 C85.2,124.5 83.7,125.8 82,127 C80.4,128.3 77.7,130.4 76,131.7 C62.1,142.9 5.4,187.8 3.3,189.3 C1.9,190.3 0.5,191.2 0.2,191.2 C-0.1,191.2 0.3,188.8 1,186 Z" id="Path"></path>
            </g>
        </g>
    </g>
</svg>