<?xml version="1.0" encoding="UTF-8"?>
<svg width="148px" height="205px" viewBox="0 0 148 205" version="1.1" xmlns="http://www.w3.org/2000/svg" xmlns:xlink="http://www.w3.org/1999/xlink">
    <!-- Generator: Sketch 54.1 (76490) - https://sketchapp.com -->
    <title>Shape</title>
    <desc>Created with Sketch.</desc>
    <g id="Page-1" stroke="none" stroke-width="1" fill="none" fill-rule="evenodd">
        <g id="google-sheets-svgrepo-com" fill="#CBD5E0" fill-rule="nonzero">
            <path d="M143.247,204.376 C145.732,204.376 147.747,202.361 147.747,199.876 L147.747,61.35 L96.003,61.35 C88.501,61.35 82.398,55.243 82.398,47.736 L82.398,0 L5.13,0 C2.645,0 0.63,2.015 0.63,4.5 L0.63,199.876 C0.63,202.361 2.645,204.376 5.13,204.376 L143.247,204.376 Z M24.891,87.627 L124.608,87.627 L124.608,167.627 L24.891,167.627 L24.891,87.627 Z M78.749,143.96 L116.607,143.96 L116.607,159.627 L78.749,159.627 L78.749,143.96 Z M32.891,119.294 L70.749,119.294 L70.749,135.96 L32.891,135.96 L32.891,119.294 Z M32.891,143.96 L70.749,143.96 L70.749,159.627 L32.891,159.627 L32.891,143.96 Z M78.749,95.627 L116.607,95.627 L116.607,111.294 L78.749,111.294 L78.749,95.627 Z M78.749,119.294 L116.607,119.294 L116.607,135.96 L78.749,135.96 L78.749,119.294 Z M32.891,95.627 L70.749,95.627 L70.749,111.294 L32.891,111.294 L32.891,95.627 Z M92.397,47.736 L92.397,10.396 L136.2,51.35 L96.003,51.35 C94.014,51.35 92.397,49.729 92.397,47.736 Z" id="Shape"></path>
        </g>
    </g>
</svg>